<?xml version="1.0" encoding="utf-8"?>
<!-- Generator: Adobe Illustrator 27.0.1, SVG Export Plug-In . SVG Version: 6.00 Build 0)  -->
<svg version="1.1" id="Capa_1" xmlns="http://www.w3.org/2000/svg" xmlns:xlink="http://www.w3.org/1999/xlink" x="0px" y="0px"
	 viewBox="0 0 60 60" style="enable-background:new 0 0 60 60;" xml:space="preserve">
<style type="text/css">
	.st0{fill:#FFFFFF;}
</style>
<path class="st0" d="M14.73,26.31L14.73,26.31c1.72,1.72,4.5,1.72,6.22,0l3.28-3.28c0.5-0.5,1.36-0.15,1.36,0.56v25.69
	c0,2.43,1.97,4.4,4.4,4.4l0,0c2.43,0,4.4-1.97,4.4-4.4V23.59c0-0.71,0.86-1.07,1.36-0.56l3.28,3.28c1.72,1.72,4.5,1.72,6.22,0l0,0
	c1.72-1.72,1.72-4.5,0-6.22L32.55,7.37c-1.41-1.41-3.69-1.41-5.09,0L14.73,20.09C13.01,21.81,13.01,24.6,14.73,26.31z"/>
</svg>
