<?xml version="1.0" encoding="utf-8"?>
<!-- Generator: Adobe Illustrator 27.0.1, SVG Export Plug-In . SVG Version: 6.00 Build 0)  -->
<svg version="1.1" id="Capa_1" xmlns="http://www.w3.org/2000/svg" xmlns:xlink="http://www.w3.org/1999/xlink" x="0px" y="0px"
	 viewBox="0 0 202.16 35.85" style="enable-background:new 0 0 202.16 35.85;" xml:space="preserve">
<style type="text/css">
	.st0{fill:#FFFFFF;}
</style>
<g>
	<path class="st0" d="M0,0.4h17v5h-5.75v30h-5.5v-30H0V0.4z"/>
	<path class="st0" d="M24.65,0.4v27c0,2.5,1.1,3.4,2.85,3.4s2.85-0.9,2.85-3.4v-27h5.2v26.65c0,5.6-2.8,8.8-8.2,8.8
		s-8.2-3.2-8.2-8.8V0.4H24.65z"/>
	<path class="st0" d="M50.8,35.4c-0.3-0.9-0.5-1.45-0.5-4.3v-5.5c0-3.25-1.1-4.45-3.6-4.45h-1.9V35.4h-5.5v-35h8.3
		c5.7,0,8.15,2.65,8.15,8.05v2.75c0,3.6-1.15,5.95-3.6,7.1c2.75,1.15,3.65,3.8,3.65,7.45v5.4c0,1.7,0.05,2.95,0.6,4.25H50.8z
		 M44.8,5.4v10.75h2.15c2.05,0,3.3-0.9,3.3-3.7V9c0-2.5-0.85-3.6-2.8-3.6H44.8z"/>
	<path class="st0" d="M59.4,0.4h5.5v35h-5.5V0.4z"/>
	<path class="st0" d="M76.3,0c5.35,0,8.1,3.2,8.1,8.8v1.1h-5.2V8.45c0-2.5-1-3.45-2.75-3.45C74.7,5,73.7,5.95,73.7,8.45
		c0,7.2,10.75,8.55,10.75,18.55c0,5.6-2.8,8.8-8.2,8.8s-8.2-3.2-8.2-8.8v-2.15h5.2v2.5c0,2.5,1.1,3.4,2.85,3.4s2.85-0.9,2.85-3.4
		c0-7.2-10.75-8.55-10.75-18.55C68.2,3.2,70.95,0,76.3,0z"/>
	<path class="st0" d="M86,0.4h17v5h-5.75v30h-5.5v-30H86V0.4z"/>
	<path class="st0" d="M110.9,15.15h7.55v5h-7.55V30.4h9.5v5h-15v-35h15v5h-9.5V15.15z"/>
	<path class="st0" d="M141.61,35.4h-5.55l-0.95-6.35h-6.75l-0.95,6.35h-5.05l5.6-35h8.05L141.61,35.4z M129.06,24.3h5.3l-2.65-17.7
		L129.06,24.3z"/>
	<path class="st0" d="M149.06,10.05V35.4h-4.95v-35h6.9l5.65,20.95V0.4h4.9v35h-5.65L149.06,10.05z"/>
	<path class="st0" d="M165.51,0.4h8.7c5.5,0,8.2,3.05,8.2,8.65v17.7c0,5.6-2.7,8.65-8.2,8.65h-8.7V0.4z M171.01,5.4v25h3.1
		c1.75,0,2.8-0.9,2.8-3.4V8.8c0-2.5-1.05-3.4-2.8-3.4H171.01z"/>
	<path class="st0" d="M185.46,8.8c0-5.6,2.95-8.8,8.35-8.8s8.35,3.2,8.35,8.8V27c0,5.6-2.95,8.8-8.35,8.8s-8.35-3.2-8.35-8.8V8.8z
		 M190.96,27.35c0,2.5,1.1,3.45,2.85,3.45s2.85-0.95,2.85-3.45V8.45c0-2.5-1.1-3.45-2.85-3.45s-2.85,0.95-2.85,3.45V27.35z"/>
</g>
</svg>
